<svg fill="none" height="18" viewBox="0 0 19 18" width="19" xmlns="http://www.w3.org/2000/svg"><path d="m8.41423 2.80662c.35091-.05188.71292-.07971 1.08577-.07971 4.4079 0 7.3004 3.88973 8.2721 5.42839.1177.18623.1765.27935.2094.42297.0247.10786.0247.27802-.0001.38588-.0329.14361-.0921.23734-.2106.42481-.2589.40978-.6536.98564-1.1766 1.61024m-11.64987-6.79143c-1.86686 1.2664-3.13424 3.02584-3.71564 3.9462-.11814.18702-.17721.28052-.21014.42413-.024726.10786-.024736.278-.00002.38586.03291.14361.09172.23672.20932.42294.97174 1.5387 3.86421 5.4284 8.27215 5.4284 1.7773 0 3.3083-.6324 4.5663-1.4881m-12.3374-12.3272 15.5422 15.5422m-9.60277-9.60277c-.46876.46877-.7587 1.11636-.7587 1.83167 0 1.4306 1.15975 2.5904 2.59037 2.5904.7153 0 1.3629-.29 1.8317-.7587" stroke="#999" stroke-linecap="round" stroke-linejoin="round"/></svg>